# xmcd CD database file
#
# Track frame offsets:
#	150
#	25739
#	49310
#	64935
#	79284
#	100217
#	123423
#	126267
#	145318
#	167456
#	189517
#	210337
#
# Disc length: 2988 seconds
#
# Revision: 0
# Processed by: cddbd v1.5.2PL0 Copyright (c) Steve Scherf et al.
# Submitted via: CDex 1.70beta2
#
DISCID=a70baa0c
DTITLE=THE FIVE CORNERS QUINTET - HOT CORNER
DYEAR=2008
DGENRE=Jazz
TTITLE0=HOT ROD
TTITLE1=KEROUAC DAYS IN MONTANA
TTITLE2=SKINNY DIPPING
TTITLE3=RICH IN TIME
TTITLE4=MIDNIGHT IN TRIESTE
TTITLE5=COME AND GET ME
TTITLE6=INTERLOPE II
TTITLE7=WALTZ UP
TTITLE8=EASY DIGGIN'
TTITLE9=SHAKE IT
TTITLE10=HABIB'S HABIT
TTITLE11=LAYERS OF LAYERS
EXTD=YEAR: 2008
EXTT0=
EXTT1=
EXTT2=
EXTT3=
EXTT4=
EXTT5=
EXTT6=
EXTT7=
EXTT8=
EXTT9=
EXTT10=
EXTT11=
PLAYORDER=
